<?xml version="1.0" encoding="utf-8"?>
<!-- Generator: Adobe Illustrator 23.0.5, SVG Export Plug-In . SVG Version: 6.00 Build 0)  -->
<svg version="1.1" id="Capa_1" xmlns="http://www.w3.org/2000/svg" xmlns:xlink="http://www.w3.org/1999/xlink" x="0px" y="0px"
	 viewBox="0 0 170 170" style="enable-background:new 0 0 170 170;" xml:space="preserve">
<style type="text/css">
	.st0{fill:#00C7D0;}
	.st1{fill:#FDFEFE;}
</style>
<g>
	<path class="st0" d="M85.8,139.8c-8.8,0-17.6,0-26.4,0c-5,0-8.7-2.3-11.2-7c-8.7-16.3-17.4-32.7-26.1-48.9c-2.7-5.1-2.7-9.9,0-14.9
		C30.8,52.5,39.6,36,48.4,19.6c2.4-4.4,6-6.6,10.6-6.6c17.7-0.1,35.4,0,53.2,0c4.8,0,8.6,2.2,11,6.8c8.8,16.5,17.6,33.1,26.5,49.6
		c2.5,4.7,2.5,9.3,0,14c-8.9,16.6-17.7,33.3-26.6,49.9c-2.3,4.3-6,6.5-10.6,6.5C103.5,139.8,94.6,139.8,85.8,139.8
		C85.8,139.8,85.8,139.8,85.8,139.8z M72.4,78.7C72.4,78.7,72.4,78.7,72.4,78.7c0-3.8,0-7.7,0-11.5c0-3.4-2.6-6.2-5.7-6.3
		c-1.9-0.1-3.8-0.1-5.6,0c-2.9,0.1-5.5,2.8-5.5,5.9c-0.1,7.9,0,15.8,0,23.7c0,0.9,0.3,1.2,1.1,1.1c1,0,2.1-0.1,3.1,0
		c1,0.1,1.4-0.3,1.4-1.5c-0.1-3.1,0-6.3,0-9.4c0-1,0.2-1.4,1.2-1.4c1.1,0.1,2.2,0.1,3.4,0c0.9-0.1,1.2,0.3,1.2,1.3
		c-0.1,3.1,0,6.3,0,9.4c0,1.1,0.2,1.6,1.3,1.5c0.9-0.1,1.9-0.1,2.8,0c1.1,0.1,1.5-0.3,1.5-1.5C72.4,86.3,72.4,82.5,72.4,78.7z
		 M78.7,78.6c0,3.9,0,7.7,0,11.6c0,1.2,0.3,1.5,1.4,1.4c0.9-0.1,1.9-0.1,2.8,0c1.2,0.1,1.4-0.4,1.4-1.6c-0.1-3,0-6.1,0-9.1
		c0-1.2,0.4-1.6,1.5-1.5c1.3,0.1,2.7,0,4,0c3.2-0.1,5.8-2.8,5.8-6.3c0-2,0-4,0-6c0-2.9-2-5.4-4.6-6.1c-2-0.5-4.1-0.2-6.2-0.2
		c-3.5,0-6,2.8-6.1,6.6C78.7,71.2,78.7,74.9,78.7,78.6z M104.9,76.4c0,2.7,0,5.3,0,8c0,1-0.2,1.3-1.2,1.4c-1.4,0-3.2-0.7-4,0.3
		c-0.8,1.1-0.2,3-0.3,4.5c0,0.8,0.2,1.1,1,1.1c4.8,0,9.7,0,14.5,0c0.7,0,1-0.2,0.9-1c0-1.4-0.1-2.7,0-4.1c0-0.9-0.3-1.1-1-1
		c-1.1,0-2.2,0-3.4,0c-0.7,0-1-0.3-1-1.1c0-5.5,0-10.9,0-16.4c0-0.9,0.3-1.2,1.1-1.2c1.1,0,2.2,0,3.4,0c0.7,0,1-0.3,0.9-1
		c0-1.2-0.1-2.4,0-3.6c0.1-1.1-0.2-1.5-1.3-1.5c-3.6,0.1-7.2,0-10.8,0c-1.4,0-3.3-0.7-4.1,0.3c-0.8,1.1-0.2,3.1-0.2,4.7
		c0,0,0,0.1,0,0.1c0,0.7,0.2,1,0.9,1c1.1,0,2.2,0,3.2,0c1-0.1,1.3,0.4,1.3,1.4C104.9,71,104.9,73.7,104.9,76.4z"/>
	<path class="st1" d="M72.4,78.7c0,3.8,0,7.7,0,11.5c0,1.2-0.4,1.6-1.5,1.5c-0.9-0.1-1.9-0.1-2.8,0c-1.1,0.1-1.3-0.4-1.3-1.5
		c0.1-3.1,0-6.3,0-9.4c0-1-0.3-1.4-1.2-1.3c-1.1,0.1-2.2,0.1-3.4,0c-1-0.1-1.2,0.4-1.2,1.4c0,3.1,0,6.3,0,9.4c0,1.2-0.4,1.5-1.4,1.5
		c-1-0.1-2.1-0.1-3.1,0c-0.8,0-1.1-0.2-1.1-1.1c0-7.9,0-15.8,0-23.7c0-3.1,2.6-5.8,5.5-5.9c1.9-0.1,3.8-0.1,5.6,0
		c3.1,0.1,5.7,2.9,5.7,6.3C72.5,71,72.4,74.9,72.4,78.7C72.4,78.7,72.4,78.7,72.4,78.7z M61.1,70.2c0,3.2,0,3.2,2.6,3.2
		c3.2,0,3.2,0,3.2-3.5c0-3,0-3-2.7-3C61.1,66.9,61.1,66.9,61.1,70.2z"/>
	<path class="st1" d="M78.7,78.6c0-3.7,0-7.5,0-11.2c0-3.8,2.6-6.6,6.1-6.6c2,0,4.1-0.3,6.2,0.2c2.7,0.7,4.6,3.2,4.6,6.1
		c0,2,0,4,0,6c-0.1,3.5-2.6,6.2-5.8,6.3c-1.3,0-2.7,0.1-4,0c-1.1-0.1-1.5,0.3-1.5,1.5c0.1,3,0,6.1,0,9.1c0,1.2-0.2,1.7-1.4,1.6
		c-0.9-0.1-1.9-0.1-2.8,0c-1,0.1-1.4-0.3-1.4-1.4C78.7,86.4,78.7,82.5,78.7,78.6z M90,70.2c0-3.3,0-3.3-2.6-3.3
		c-3.1,0-3.1,0-3.1,3.4c0,3.1,0,3.1,2.8,3.1C90,73.4,90,73.4,90,70.2z"/>
	<path class="st1" d="M104.9,76.4c0-2.7,0-5.3,0-8c0-1.1-0.3-1.5-1.3-1.4c-1.1,0.1-2.2,0-3.2,0c-0.6,0-0.9-0.3-0.9-1
		c0,0,0-0.1,0-0.1c0.1-1.6-0.6-3.6,0.2-4.7c0.8-1,2.7-0.3,4.1-0.3c3.6-0.1,7.2,0,10.8,0c1.1,0,1.4,0.4,1.3,1.5c-0.1,1.2,0,2.4,0,3.6
		c0,0.8-0.2,1-0.9,1c-1.1,0-2.2,0-3.4,0c-0.8,0-1.1,0.3-1.1,1.2c0,5.5,0,10.9,0,16.4c0,0.8,0.3,1.1,1,1.1c1.1,0,2.2,0,3.4,0
		c0.7,0,1.1,0.2,1,1c-0.1,1.4,0,2.7,0,4.1c0,0.8-0.3,1-0.9,1c-4.8,0-9.7,0-14.5,0c-0.8,0-1-0.4-1-1.1c0.1-1.5-0.6-3.5,0.3-4.5
		c0.8-1,2.6-0.3,4-0.3c1,0,1.2-0.4,1.2-1.4C104.9,81.7,104.9,79,104.9,76.4z"/>
	<path class="st0" d="M61.1,70.2c0-3.3,0-3.3,3-3.3c2.7,0,2.7,0,2.7,3c0,3.5,0,3.5-3.2,3.5C61.1,73.4,61.1,73.4,61.1,70.2z"/>
	<path class="st0" d="M90,70.2c0,3.1,0,3.1-3,3.1c-2.8,0-2.8,0-2.8-3.1c0-3.4,0-3.4,3.1-3.4C90,66.9,90,66.9,90,70.2z"/>
</g>
</svg>
